<svg width="207" height="34" viewBox="0 0 207 34" fill="none" xmlns="http://www.w3.org/2000/svg">
<path d="M206.831 21.1912C207.213 20.4559 206.926 19.5504 206.191 19.1687L194.21 12.9483C193.474 12.5666 192.569 12.8532 192.187 13.5885C191.805 14.3237 192.092 15.2292 192.827 15.6109L203.478 21.1401L197.948 31.7904C197.567 32.5256 197.853 33.4311 198.588 33.8128C199.324 34.1945 200.229 33.9079 200.611 33.1727L206.831 21.1912ZM0.272119 3.31156C32.3429 21.11 118.243 49.6914 205.953 21.9301L205.047 19.0699C118.357 46.5086 33.3237 18.2233 1.72788 0.68844L0.272119 3.31156Z" fill="#5BC7A7"/>
</svg>
